<svg id="visual" viewBox="0 0 900 600" width="900" height="600" xmlns="http://www.w3.org/2000/svg" xmlns:xlink="http://www.w3.org/1999/xlink" version="1.1"><rect x="0" y="0" width="900" height="600" fill="#ffffff"></rect><defs><linearGradient id="grad1_0" x1="33.3%" y1="0%" x2="100%" y2="100%"><stop offset="20%" stop-color="#ffceb6" stop-opacity="1"></stop><stop offset="80%" stop-color="#ffceb6" stop-opacity="1"></stop></linearGradient></defs><defs><linearGradient id="grad1_1" x1="33.3%" y1="0%" x2="100%" y2="100%"><stop offset="20%" stop-color="#ffceb6" stop-opacity="1"></stop><stop offset="80%" stop-color="#ffe6da" stop-opacity="1"></stop></linearGradient></defs><defs><linearGradient id="grad1_2" x1="33.3%" y1="0%" x2="100%" y2="100%"><stop offset="20%" stop-color="#ffffff" stop-opacity="1"></stop><stop offset="80%" stop-color="#ffe6da" stop-opacity="1"></stop></linearGradient></defs><defs><linearGradient id="grad2_0" x1="0%" y1="0%" x2="66.7%" y2="100%"><stop offset="20%" stop-color="#ffceb6" stop-opacity="1"></stop><stop offset="80%" stop-color="#ffceb6" stop-opacity="1"></stop></linearGradient></defs><defs><linearGradient id="grad2_1" x1="0%" y1="0%" x2="66.7%" y2="100%"><stop offset="20%" stop-color="#ffe6da" stop-opacity="1"></stop><stop offset="80%" stop-color="#ffceb6" stop-opacity="1"></stop></linearGradient></defs><defs><linearGradient id="grad2_2" x1="0%" y1="0%" x2="66.7%" y2="100%"><stop offset="20%" stop-color="#ffe6da" stop-opacity="1"></stop><stop offset="80%" stop-color="#ffffff" stop-opacity="1"></stop></linearGradient></defs><g transform="translate(900, 0)"><path d="M0 297.5C-31.7 296.7 -63.4 296 -91.9 282.9C-120.5 269.8 -145.8 244.4 -156.4 215.2C-166.9 186 -162.5 153 -184.5 134C-206.4 115.1 -254.5 110.2 -277.7 90.2C-300.9 70.2 -299.2 35.1 -297.5 0L0 0Z" fill="#fff3ec"></path><path d="M0 198.3C-21.1 197.8 -42.3 197.3 -61.3 188.6C-80.3 179.9 -97.2 162.9 -104.2 143.5C-111.2 124 -108.4 102 -123 89.3C-137.6 76.7 -169.7 73.5 -185.1 60.2C-200.6 46.8 -199.5 23.4 -198.3 0L0 0Z" fill="#ffdac8"></path><path d="M0 99.2C-10.6 98.9 -21.1 98.7 -30.6 94.3C-40.2 89.9 -48.6 81.5 -52.1 71.7C-55.6 62 -54.2 51 -61.5 44.7C-68.8 38.4 -84.8 36.7 -92.6 30.1C-100.3 23.4 -99.7 11.7 -99.2 0L0 0Z" fill="#ffceb6"></path></g><g transform="translate(0, 600)"><path d="M0 -297.5C27.4 -286.6 54.9 -275.8 87.8 -270.1C120.6 -264.4 159 -263.9 174.8 -240.6C190.7 -217.4 184.1 -171.4 198.2 -144C212.3 -116.6 247.2 -107.7 267.2 -86.8C287.2 -65.9 292.4 -33 297.5 0L0 0Z" fill="#fff3ec"></path><path d="M0 -198.3C18.3 -191.1 36.6 -183.9 58.5 -180.1C80.4 -176.3 106 -175.9 116.6 -160.4C127.1 -144.9 122.7 -114.3 132.1 -96C141.6 -77.7 164.8 -71.8 178.2 -57.9C191.5 -44 194.9 -22 198.3 0L0 0Z" fill="#ffdac8"></path><path d="M0 -99.2C9.1 -95.5 18.3 -91.9 29.3 -90C40.2 -88.1 53 -88 58.3 -80.2C63.6 -72.5 61.4 -57.1 66.1 -48C70.8 -38.9 82.4 -35.9 89.1 -28.9C95.7 -22 97.5 -11 99.2 0L0 0Z" fill="#ffceb6"></path></g></svg>